<?xml version="1.0" encoding="UTF-8"?> <svg xmlns="http://www.w3.org/2000/svg" width="190" height="66" viewBox="0 0 190 66" fill="none"><path d="M1 32.9995C34.7016 32.2347 101.651 30.7128 138.333 29.8884C148.333 29.6637 158.333 29.4404 168.333 29.2218C172.036 29.1408 181.101 25.7978 179.444 29.1107C178.606 30.7868 175.902 30.3355 174.111 30.8884C156.86 36.216 139.724 41.8544 122.556 47.444C112.186 50.82 85.546 59.5853 74.5556 62.3329C71.3999 63.1218 62.9528 66.28 64.8889 63.6662C68.0442 59.4066 74.1388 58.4469 79 56.3329C91.7844 50.7733 104.81 45.7825 117.778 40.6662C131.847 35.1155 146.034 29.8648 160.111 24.3329C169.241 20.7452 196.54 12.8435 186.778 11.8884C170.479 10.294 148.189 17.4671 132.333 19.8884C112.673 22.8908 111.189 23.1204 93 25.5551C89.2981 26.0506 85.5934 26.524 81.8889 26.9995C79.3812 27.3215 74.3333 30.1945 74.3333 27.6662C74.3333 21.509 126.879 10.0666 132.111 8.5551C139.037 6.55434 145.984 4.62657 152.889 2.5551C162.036 -0.189061 151.652 2.27794 151.444 2.33288C133.746 7.00801 116.439 13.4507 99 18.9995" stroke="#F494BA" stroke-width="2" stroke-linecap="round"></path></svg> 