<?xml version="1.0" encoding="UTF-8"?> <svg xmlns="http://www.w3.org/2000/svg" width="207" height="80" viewBox="0 0 207 80" fill="none"><path d="M124 1C88.0888 12.7357 46.3813 22.0855 13.3334 41.5556C3.17888 47.5381 1.78093 57.7174 11.889 64.6667C23.4068 72.5852 40.6579 73.9089 54.0001 74.5556C92.8559 76.4389 133.627 70.2278 170 56.3333C181.642 51.886 194.098 46.1233 198.333 33.6667C203.434 18.6641 169.51 21.8773 164.111 21.7778C131.943 21.1848 99.7812 24.3136 69.0001 34C58.9956 37.1483 42.7446 41.7481 35.889 50.8889C27.5549 62.001 42.9461 68.3139 51.5556 69.2222C83.6037 72.6034 119.203 61.3853 149.556 52.7778C167.168 47.7832 185.8 42.1671 200.222 30.3333C208.339 23.6734 207.113 16.1566 196.667 12.2222C172.612 3.16252 140.97 7.27927 116.333 10.1111C83.3973 13.8969 51.097 21.6114 21.6667 37.2222C9.61669 43.614 -1.24108 51.8746 2.00008 67C3.4956 73.9791 12.8924 74.6473 18.2223 75C49.3573 77.0604 82.6181 70.7171 112.445 62.2222C126.48 58.2249 144.903 52.7827 147.556 36.3333C151.689 10.7043 102.311 22.237 90.0001 24.1111C67.623 27.5175 43.6963 32.7189 24.3334 45.1111C13.8205 51.8394 1.24533 68.6931 20.0001 74.8889C51.3183 85.2351 90.5455 72.711 119.111 60C126.999 56.4901 149.506 47.1144 152.889 36C155.961 25.9055 150.506 23.0498 140.445 21.8889C107.83 18.1256 79.1945 25.5257 50.0001 39" stroke="#ED1B38" stroke-width="2" stroke-linecap="round"></path></svg> 