<?xml version="1.0" encoding="UTF-8"?> <svg xmlns="http://www.w3.org/2000/svg" width="107" height="34" viewBox="0 0 107 34" fill="none"><path d="M1 19.9995C19.2126 14.6345 36.9848 8.10856 55.1111 2.77729C55.3225 2.71511 61.3215 0.455753 60 1.77729C54.8483 6.92895 47.5451 10.8227 41.5556 14.8884C39.9615 15.9704 26.4433 24.6524 28 24.5551C38.162 23.9199 47.0057 17.5144 56.0556 13.5551C65.8835 9.25533 51.7629 21.9656 50.0556 23.3884C47.5607 25.4674 45.839 26.8803 43.2222 28.7217C41.5524 29.8968 36.571 31.7432 38.4444 32.5551C43.637 34.8052 56.615 25.6381 60.9444 23.5551C65.5547 21.3369 67.4543 20.5211 71.8889 18.2217C73.772 17.2453 78.8629 13.8034 77.6667 15.5551C74.5271 20.1523 69.8845 24.3208 65.8333 28.1106C62.2052 31.5046 65.2958 29.6184 68.7778 28.2217C81.8007 22.9983 93.9243 16.0784 106 8.99951" stroke="#FBD3E0" stroke-width="2" stroke-linecap="round"></path></svg> 