<?xml version="1.0" encoding="UTF-8"?> <svg xmlns="http://www.w3.org/2000/svg" width="539" height="144" viewBox="0 0 539 144" fill="none"><path d="M528 40.9991C499.207 36.1189 505.33 37.0453 462.444 30.888C386.286 19.9536 309.696 7.29713 232.889 1.7769C196.98 -0.80392 158.216 7.4544 127.333 26.7769C112.08 36.3202 92.2106 56.5839 100.722 76.6658C105.857 88.7816 119.425 97.5711 131 102.444C153.527 111.926 178.838 112.157 202.778 112.388C279.091 113.125 356.389 107.545 431.111 91.5547C450.518 87.4017 469.849 81.913 488.278 74.4991C491.987 73.0068 500.69 70.5955 502.333 65.6658C508.496 47.1775 481.406 36.6914 469.333 33.888C439.833 27.0375 408.461 25.7824 378.333 26.0547C334.407 26.4516 290.647 31.5351 247.556 39.9991C221.854 45.0474 183.502 54.5356 158.111 62.9991C139.899 69.0697 114.842 76.9231 103.667 94.4991C82.2751 128.144 145.191 137.704 162.333 139.332C229.633 145.726 299.154 140.88 366.111 133.332C412.443 128.11 458.701 119.935 502.722 104.277C510.582 101.481 532.914 95.3562 536.889 84.3325C539.681 76.5879 531.917 66.4387 527.333 61.7769C488.088 21.8622 418.947 21.5718 367.889 19.5547C287.182 16.3663 205.562 17.2781 125.056 24.0547C92.6272 26.7843 45.8839 28.4994 16.6666 48.1102C7.73779 54.1033 -0.774075 67.4196 1.49996 78.6102C5.57497 98.6636 34.5586 105.186 50.3333 108.444C100.046 118.711 152.936 118.807 203.389 117.11C221.207 116.511 239.021 115.483 256.778 113.888C331.713 107.159 284.08 108.908 358 99.9991" stroke="#FBD3E0" stroke-width="2" stroke-linecap="round"></path></svg> 