<?xml version="1.0" encoding="UTF-8"?> <svg xmlns="http://www.w3.org/2000/svg" width="121" height="103" viewBox="0 0 121 103" fill="none"><path d="M57 34.0006C57 27.1255 55.3249 18.0654 59.4444 12.0006C68.4442 -1.24912 85.6682 3.00057 99.7777 3.00057C104.796 3.00057 109.887 2.183 113.667 6.11168C118.793 11.4409 119.074 17.5948 119 24.5561C118.868 36.9601 114.098 42.5486 106.111 51.3339C94.8554 63.7151 75.8706 75.0599 75 93.7784C74.8161 97.7305 72.1306 89.1973 71.3888 88.0561C68.3824 83.4309 64.6657 82.7029 59.4444 82.2228C42.4765 80.6625 24.5793 79.322 12.9444 64.7783C7.53674 58.0188 5.13361 48.7765 4.99996 40.2228C4.91083 34.5187 3.80674 27.1222 6.61107 21.945C8.80889 17.8875 13.6207 11.542 18.7222 11.0561C24.3602 10.5192 33.349 9.84176 38.5555 12.445C43.5622 14.9484 47.8817 20.3812 51.5 24.5561C53.975 27.412 54.9667 31.9784 58 34.0006" stroke="#F0BBCD" stroke-width="2" stroke-linecap="round"></path><path d="M64 33C64 27.9799 61.6471 15.6002 65.0556 11.0556C69.3873 5.27989 75.7899 4 82.4445 4C92.9974 4 109.996 5.34039 115.333 16.5C118.833 23.8171 117.092 32.4242 113.5 39.0556C108.884 47.5775 101.403 51.014 94.2223 56.8889C85.0321 64.4081 76 78.3229 76 90.4444C76 98.0228 69.7597 87.8632 68 86C64.097 81.8674 63.3478 80.2247 57.4445 79.2222C49.1792 77.8187 39.0785 77.1889 31.7778 73C23.5366 68.2714 17.5149 60.1798 12.2222 52.4444C6.89075 44.6522 8.29789 29.6215 10.4445 21.3333C14.4946 5.6954 32.9793 2 47 2C54.5613 2 61.8357 10.2269 65 16.5556C66.7867 20.1289 70 21.7325 70 26" stroke="#F0BBCD" stroke-width="2" stroke-linecap="round"></path><path d="M64.0001 30C60.4183 28.4081 61.2184 11.4244 62.6112 7.55556C64.7634 1.57724 72.8119 1 78.2223 1C87.2477 1 92.8712 1.63403 101 5.44444C111.51 10.371 116.089 16.4578 118.556 27.5556C123.138 48.1767 100.694 54.7515 87.4445 64.7778C80.8636 69.758 79.2233 76.2939 76.389 83.2222C75.6812 84.9524 72.6399 101.516 71.3334 101.778C69.1816 102.208 62.2354 85.2843 57.889 83.1111C53.2811 80.8072 46.3839 79.4539 41.2779 79C34.3795 78.3868 27.7968 76.3568 21.2223 74.2222C12.7532 71.4725 3.78576 66.1287 2.11121 56.5C0.786972 48.8856 1.53833 38.7834 2.77787 31.2222C4.27996 22.0595 14.1493 13.0117 21.5001 8.11111C27.1725 4.32954 33.8997 4.21755 40.5557 5.22222C53.3476 7.15308 64.3052 18.9577 71.0001 29" stroke="#F0BBCD" stroke-width="2" stroke-linecap="round"></path></svg> 