<?xml version="1.0" encoding="UTF-8"?> <svg xmlns="http://www.w3.org/2000/svg" width="312" height="112" viewBox="0 0 312 112" fill="none"><path d="M62.9999 55.9986C117.452 38.0176 172.183 20.7662 226.555 2.55412C227.16 2.35174 228.726 1.27768 228.111 1.44301C215.267 4.89362 199.61 14.1863 188.333 19.3875C142.489 40.5317 95.4359 59.1361 49.8888 80.8875C39.5871 85.8071 23.5118 94.0001 13.2221 99.9986C10.2268 101.745 7.26389 103.572 4.49988 105.665C1.34962 108.051 0.225492 109.572 4.88877 109.054C11.07 108.367 21.4066 104.333 25.9443 102.721C55.2955 92.2946 84.4596 81.4638 114.111 71.8875C137.243 64.4168 160.801 57.1222 184.444 51.3319C185.861 50.985 186.957 50.6644 185.222 51.5541C176.752 55.8977 168.715 60.5008 160.667 65.6652C139.732 79.0981 119.133 93.3742 99.1665 108.221C98.0965 109.016 96.8485 109.637 95.9999 110.665C95.7131 111.013 96.9188 110.62 97.3332 110.443C104.898 107.216 112.113 103.224 119.5 99.6097C157.927 80.8075 196.726 62.5573 235.889 45.3319C239.609 43.6956 249.089 37.7267 247.444 41.443C245.22 46.4683 233.321 53.6048 229.5 56.4986C221.377 62.6506 216.318 66.1231 207.778 71.8319C204.541 73.9955 201.257 76.0883 198 78.2208C196.109 79.4586 194.188 80.6524 192.333 81.943C191.63 82.4319 190.244 82.7028 190.333 83.5541C190.636 86.434 195.818 81.6638 198.444 80.443C217.597 71.5389 236.366 61.7188 255.167 52.1097C267.344 45.8858 301.455 24.8376 292.555 35.2208C291.667 36.2579 284.256 42.9849 290.055 40.6652C297.547 37.6688 304.147 33.1593 311 28.9986" stroke="#ED1B38" stroke-width="2" stroke-linecap="round"></path></svg> 