<?xml version="1.0" encoding="UTF-8"?> <svg xmlns="http://www.w3.org/2000/svg" width="1203" height="483" viewBox="0 0 1203 483" fill="none"><path d="M1 1C33.5582 9.40924 95.6564 24.622 130.111 36.2222C138.039 38.8914 160.529 45.6503 167 56.7778C167.256 57.2184 166.649 69.0834 166.556 69.8889C165.556 78.4849 162.008 84.7228 157.222 92C131.868 130.551 100.346 165.56 78.4444 206.333C68.4046 225.025 63.4191 247.131 63.1111 268.278C62.7349 294.112 79.7477 323.365 103.111 335.111C131.603 349.436 169.663 333.507 196 322.667C251.544 299.805 305.343 272.691 361.444 251.167C398.795 236.836 443.582 226.451 483.556 236C493.792 238.445 509.276 243.586 514.667 253.778C517.383 258.912 516.11 267.246 515.889 272.778C514.173 315.686 498.183 356.614 494.167 399.333C492.86 413.226 490.935 428.926 496.833 442.111C500.577 450.48 508.562 458.846 516.111 463.889C531.497 474.168 549.672 479.648 568 481.111C596.827 483.412 628.226 483.104 656.556 477C703.355 466.917 736.005 426.508 763.389 390.056C777.891 370.751 791.128 351.684 811.889 338.444C826.651 329.03 845.835 318.444 863.944 318.444C876.192 318.444 887.501 324.007 898.333 329.111C913.794 336.396 928.818 344.199 944.667 350.667C968.482 360.385 991.176 365.415 1017.11 362.333C1059.1 357.343 1096.76 333.683 1129.33 308C1163.91 280.735 1192.54 246.517 1198.44 201.667C1199.49 193.753 1200.45 185.768 1202 178" stroke="#E98593" stroke-linecap="round"></path></svg> 