<?xml version="1.0" encoding="UTF-8"?> <svg xmlns="http://www.w3.org/2000/svg" width="42" height="42" viewBox="0 0 42 42" fill="none"><path d="M41.2357 6.28173C39.8934 2.77298 37.3728 0.715183 33.6707 0.108354C29.5157 -0.573057 25.4492 2.0441 23.293 5.57998C22.525 6.83432 21.8653 8.10222 21.3139 9.38029C21.2581 9.50911 21.1925 9.5125 21.1203 9.39385C20.0076 7.54285 18.8327 6.12918 17.6019 5.15283C13.4863 1.89155 7.94951 1.6678 3.70586 4.79009C-0.774094 8.08527 -0.902093 14.2586 1.77275 18.8251C2.72126 20.4422 3.87981 22.1373 5.24841 23.9035C9.93513 29.9616 14.9468 35.4027 20.2932 41.2439C20.5459 41.5219 20.8347 41.749 21.1564 41.9253C21.2515 41.9761 21.35 42.0033 21.455 41.9999C21.885 41.9897 22.3051 41.7219 22.712 41.1896C25.2228 37.9148 28.1142 34.7281 30.6709 31.5177C33.546 27.9072 36.3751 24.412 38.8169 20.4591C41.3736 16.3232 43.054 11.0381 41.2357 6.28173ZM21.3336 20.5676C21.5272 20.6931 21.7832 20.649 21.9309 20.4659C22.2821 20.0184 22.5775 19.5845 22.8171 19.1675C23.969 17.1436 25.0882 15.1028 26.1746 13.0416C26.6931 12.0619 27.32 11.3126 28.0223 10.4956C28.1372 10.3634 28.3341 10.3499 28.4621 10.4685C30.3657 12.2381 29.1842 14.34 27.9534 16.052C25.6232 19.2896 23.3816 22.3881 21.2253 25.3477C21.1564 25.446 21.0842 25.446 21.0087 25.3545C18.7474 22.6119 16.4368 19.7099 14.0803 16.6487C12.9054 15.1231 11.9011 12.967 13.611 11.3059C13.693 11.2279 13.7849 11.1974 13.8932 11.2143C14.914 11.3737 16.2235 13.1331 16.9324 14.0858C18.2879 15.8995 19.5744 17.8657 20.7921 19.9913C20.9299 20.232 21.1104 20.4219 21.3336 20.5676ZM31.2354 11.2991C30.9597 10.5295 30.5823 9.7532 30.1031 8.97687C29.985 8.78363 30.0178 8.6243 30.1983 8.49547C30.9335 7.9734 32.0527 7.34284 32.9421 7.67168C35.2198 8.51242 35.082 11.1364 34.4748 13.1569C33.7363 15.6113 32.0822 17.92 30.2213 20.4185C27.2314 24.429 24.294 28.4022 21.4058 32.3313C21.3237 32.4432 21.2417 32.4466 21.1531 32.3415C18.1106 28.7649 15.0288 25.09 11.9011 21.3101C10.5554 19.6828 9.43627 18.1979 8.54028 16.8521C7.38829 15.1231 6.61701 12.7229 7.85105 10.7601C8.65186 9.48877 9.90231 9.1362 11.6057 9.70574C11.842 9.78371 11.8814 9.92271 11.7271 10.1227C9.43955 13.0789 11.1626 15.9605 13.2467 18.659C15.8231 21.9949 18.2157 24.9951 20.4245 27.6597C20.5787 27.8428 20.7691 27.9682 20.9988 28.036C21.1564 28.0835 21.3237 28.0293 21.4288 27.9004C23.9723 24.7036 26.4864 21.3914 28.9708 17.964C29.3516 17.4386 29.706 16.8928 30.0342 16.3266C30.9433 14.7502 31.8918 13.1331 31.2354 11.2991ZM39.6079 13.0145C38.7119 16.9402 36.3816 20.5778 34.0087 23.7204C30.1721 28.7954 26.1221 33.7517 21.862 38.5894C21.583 38.9047 21.3008 38.9115 21.0087 38.6098C16.0824 33.5212 11.3825 28.1276 6.90911 22.4356C5.51754 20.6659 4.27693 18.876 3.34812 17.0521C1.30671 13.0314 1.99921 8.1429 5.97702 5.91899C9.96795 3.69169 14.9796 4.87484 17.7759 8.32936C19.2495 10.1465 20.7166 12.1771 20.2965 14.7095C20.2636 14.9095 20.1914 14.9265 20.0831 14.7536C19.2528 13.445 18.2025 12.2653 17.1851 11.0889C14.9599 8.52598 11.1692 6.30546 7.86418 8.03442C4.89067 9.58709 4.46729 13.323 5.80635 16.1503C6.38727 17.3775 7.08962 18.5064 7.91341 19.5337C11.2479 23.6967 14.7367 27.9716 18.383 32.355C19.3053 33.467 20.1553 34.8501 21.3434 35.6909C21.3861 35.7214 21.4452 35.7112 21.478 35.6705C24.8618 31.1448 28.2258 26.602 31.5768 22.0389C33.5558 19.3438 35.9156 16.2724 36.7361 12.9433C37.4483 10.0651 36.5884 6.61396 33.6083 5.66134C29.8865 4.47142 26.1286 9.02433 24.5631 11.8551C24.097 12.6992 23.6212 13.5128 23.1321 14.3027C23.037 14.4553 22.9713 14.4451 22.9286 14.2688C22.7678 13.5874 22.7481 12.9229 22.8696 12.2788C23.6507 8.15985 25.8989 4.36633 29.6765 2.74925C32.371 1.59322 35.5218 2.24751 37.5369 4.40362C39.6473 6.66143 40.3102 9.94305 39.6079 13.0145Z" fill="#FBD3E0"></path></svg> 