<?xml version="1.0" encoding="UTF-8"?> <svg xmlns="http://www.w3.org/2000/svg" width="23" height="28" viewBox="0 0 23 28" fill="none"><path d="M1.5 11C1.78446 14.8046 3 19.6514 3 23.2778C3 24.1804 2.95254 25.0983 3 26C3.12075 28.2942 6.46247 24.181 7 23.3889C9.01491 20.4195 10.3366 16.4976 11.7778 13.2222C12.6545 11.2296 13.728 9.14722 15 7.38889C15.9756 6.04021 18 3.18012 18 1.5" stroke="#ED1B38" stroke-width="2" stroke-linecap="round"></path><path d="M7 12C7 15.3475 8.09456 18.1892 9.22222 21.25C9.65447 22.4233 9.79149 23.3649 10.3889 24.5C11.5341 26.6759 14.3592 22.8334 14.8889 21.6111C16.6899 17.4549 19.526 13.4479 21.5 9.5" stroke="#ED1B38" stroke-width="2" stroke-linecap="round"></path></svg> 