<?xml version="1.0" encoding="UTF-8"?> <svg xmlns="http://www.w3.org/2000/svg" width="37" height="37" viewBox="0 0 37 37" fill="none"><g clip-path="url(#clip0_1578_192)"><path d="M36.3262 5.53391C35.1437 2.44286 32.9232 0.630042 29.6618 0.0954549C26.0014 -0.504836 22.4191 1.80076 20.5195 4.9157C19.8429 6.02071 19.2618 7.13767 18.776 8.26359C18.7269 8.37708 18.6691 8.38006 18.6055 8.27553C17.6253 6.64489 16.5902 5.39951 15.506 4.5394C11.8803 1.66636 7.00265 1.46925 3.2642 4.21984C-0.682428 7.12274 -0.795189 12.5612 1.56122 16.584C2.39681 18.0086 3.41744 19.5019 4.62311 21.0578C8.75189 26.3948 13.1669 31.1881 17.8768 36.3339C18.0995 36.5788 18.3539 36.7789 18.6373 36.9342C18.7211 36.979 18.8078 37.0029 18.9004 36.9999C19.2791 36.9909 19.6492 36.755 20.0077 36.2861C22.2196 33.4011 24.7668 30.5938 27.0191 27.7656C29.5519 24.5849 32.0442 21.5058 34.1954 18.0235C36.4477 14.38 37.928 9.724 36.3262 5.53391ZM18.7934 18.1191C18.964 18.2296 19.1895 18.1908 19.3196 18.0295C19.629 17.6353 19.8892 17.253 20.1003 16.8857C21.1151 15.1027 22.101 13.3048 23.0581 11.489C23.5149 10.6259 24.0671 9.9659 24.6859 9.24615C24.7871 9.12968 24.9605 9.11773 25.0733 9.22226C26.7503 10.7812 25.7094 12.6329 24.6251 14.1411C22.5723 16.9932 20.5976 19.7229 18.698 22.3301C18.6373 22.4167 18.5736 22.4167 18.5071 22.3361C16.515 19.92 14.4796 17.3635 12.4036 14.6667C11.3685 13.3228 10.4838 11.4233 11.9902 9.95993C12.0624 9.89124 12.1434 9.86436 12.2388 9.8793C13.138 10.0197 14.2916 11.5697 14.9161 12.4089C16.1103 14.0067 17.2436 15.7388 18.3163 17.6114C18.4378 17.8234 18.5968 17.9907 18.7934 18.1191ZM27.5164 9.95396C27.2736 9.27602 26.9411 8.5921 26.5189 7.90819C26.4149 7.73796 26.4438 7.59759 26.6028 7.48411C27.2504 7.02418 28.2364 6.46869 29.0199 6.75838C31.0265 7.49904 30.9051 9.81061 30.3702 11.5906C29.7196 13.7528 28.2624 15.7866 26.623 17.9877C23.9891 21.5208 21.4013 25.021 18.857 28.4823C18.7847 28.5809 18.7124 28.5839 18.6344 28.4913C15.9541 25.3405 13.2392 22.1031 10.4838 18.7732C9.29835 17.3396 8.31241 16.0315 7.52309 14.8459C6.50824 13.3228 5.82878 11.2083 6.91592 9.4791C7.62139 8.35916 8.72298 8.04856 10.2236 8.55029C10.4317 8.61898 10.4664 8.74143 10.3305 8.91764C8.3153 11.5219 9.83324 14.0604 11.6692 16.4377C13.9389 19.3764 16.0466 22.0195 17.9925 24.3669C18.1284 24.5282 18.2961 24.6387 18.4985 24.6984C18.6373 24.7402 18.7847 24.6924 18.8772 24.5789C21.118 21.7627 23.3327 18.8448 25.5214 15.8255C25.8568 15.3625 26.1691 14.8817 26.4582 14.383C27.2591 12.9942 28.0947 11.5697 27.5164 9.95396ZM34.8922 11.4651C34.1028 14.9235 32.05 18.1281 29.9596 20.8966C26.5797 25.3674 23.0118 29.7337 19.2589 33.9954C19.0131 34.2732 18.7645 34.2792 18.5071 34.0134C14.1673 29.5306 10.027 24.779 6.08611 19.7647C4.8602 18.2057 3.76729 16.6288 2.94905 15.0221C1.15066 11.4801 1.76072 7.17351 5.26498 5.21435C8.7808 3.25221 13.1958 4.2945 15.6592 7.33777C16.9574 8.93854 18.2498 10.7275 17.8797 12.9584C17.8508 13.1346 17.7872 13.1495 17.6918 12.9972C16.9603 11.8444 16.0351 10.8051 15.1388 9.76879C13.1785 7.51098 9.83902 5.55481 6.92748 7.07794C4.30796 8.44577 3.93498 11.7369 5.11463 14.2277C5.62639 15.3088 6.24513 16.3033 6.97085 17.2082C9.90841 20.8757 12.9819 24.6417 16.1941 28.5032C17.0066 29.4828 17.7554 30.7013 18.8021 31.442C18.8396 31.4688 18.8917 31.4599 18.9206 31.4241C21.9015 27.437 24.8651 23.4351 27.8171 19.4153C29.5606 17.041 31.6394 14.3352 32.3623 11.4024C32.9897 8.86687 32.2322 5.82659 29.6069 4.98738C26.3281 3.93911 23.0176 7.95 21.6384 10.4437C21.2279 11.1874 20.8086 11.9042 20.3778 12.6C20.294 12.7344 20.2361 12.7254 20.1986 12.5701C20.0569 11.9699 20.0395 11.3845 20.1465 10.8171C20.8346 7.18844 22.8152 3.84652 26.1431 2.42195C28.5168 1.40355 31.2925 1.97995 33.0677 3.87938C34.9269 5.8684 35.5109 8.75935 34.8922 11.4651Z" fill="#ED1B38"></path></g><defs><clipPath id="clip0_1578_192"><rect width="37" height="37" fill="white"></rect></clipPath></defs></svg> 