<?xml version="1.0" encoding="UTF-8"?> <svg xmlns="http://www.w3.org/2000/svg" width="1325" height="255" viewBox="0 0 1325 255" fill="none"><path d="M1 36.0001C38.0005 25.9834 74.1848 16.2344 112.111 10.7779C157.25 4.28363 202.02 -2.03082 247.778 1.66677C274.204 3.80225 301.678 7.57118 326.667 16.889C332.679 19.131 345.244 24.0932 347.333 32.1112C348.712 37.4018 341.679 43.8121 338.944 46.7779C327.636 59.0451 314.989 70.0424 304 82.6112C294.857 93.0687 277.769 113.12 281.944 128.778C286.986 147.683 304.451 153.862 321.889 154.556C360.542 156.094 399.04 147.329 436.889 140.889C472.484 134.832 510.097 126.039 546.389 130.611C569.733 133.552 595.842 142.224 612.333 160C617.485 165.553 618.171 172.271 614.944 179C608.095 193.286 594.971 203.452 585.167 215.556C579.556 222.483 573.049 231.303 574.444 240.778C576.888 257.367 607.674 253.243 618.444 253.333C673.95 253.801 727.414 241.678 781.889 232.611C886.334 215.228 990.614 202.598 1096.61 200.833C1142.91 200.062 1189.77 199.705 1235.67 207C1251.66 209.542 1279.87 216.264 1296 220.889C1363.18 240.153 1281.7 217.232 1323 231" stroke="#E98593" stroke-linecap="round"></path></svg> 