<?xml version="1.0" encoding="UTF-8"?> <svg xmlns="http://www.w3.org/2000/svg" width="758" height="472" viewBox="0 0 758 472" fill="none"><path d="M471 91.0002C381.935 96.6135 288.96 106.887 203.111 131.889C175.249 140.004 152.207 152.92 131.222 172.778C117.14 186.104 98.1673 204.741 98.5556 226C99.02 251.428 112.421 272.217 127.778 291.556C160.553 332.828 203.492 360.943 252.333 379.667C315.343 403.822 385.804 407.285 452.556 407C542.06 406.618 665.589 395.835 703.222 298.889C721.246 252.458 714.838 206.054 697.222 160.556C687.892 136.456 676.195 113.137 656.778 95.5558C624.31 66.1567 583.023 43.2738 543.445 25.2224C461.754 -12.0364 368.634 -2.22634 285.889 27.0002C234.207 45.2549 184.508 71.56 141 105C103.475 133.842 65.5561 172.68 63.2223 222.778C61.5415 258.859 75.21 285.438 101 310C148.045 354.805 209.457 395.185 271.333 415.889C333.867 436.813 403.261 440.628 468.556 435.445C516.984 431.6 565.474 423.154 612.889 412.778C643.567 406.065 677.178 399.003 705.222 383.889C763.656 352.397 759.682 256.735 730.556 207.445C714.647 180.522 692.818 158.745 668.778 139C621.717 100.347 570.812 69.1021 512.111 51.8891C413.643 23.0149 308.914 29.4096 212 60.8891C159.768 77.855 106.132 98.0164 61.2223 130.334C26.1643 155.561 9.11711 181.098 3.4445 223.445C-0.840775 255.435 -1.45286 284.674 24.2223 308.222C49.7688 331.653 83.3724 345.028 115.222 357.222C152.498 371.495 191.099 384.023 229.778 393.889C289.027 409.002 348.382 411.213 409.222 411C460.342 410.821 517.126 411.247 564.778 390.111C592.456 377.835 623.923 361.092 641.445 335.445C663.002 303.889 667.729 262.664 672.556 225.778C676.082 198.828 683.924 164.75 667.556 140.445C643.055 104.065 597.802 89.7012 558.445 75.8891C507.959 58.1715 457.335 45.3132 403.667 43.4446C371.637 42.3295 339.37 42.809 307.333 43.2224C277.834 43.6031 247.191 43.2591 218.111 49.2224C132.083 66.8641 52.0884 128.336 24.1112 212.667C12.5042 247.654 9.14139 288.611 22.1112 323.889C42.512 379.379 101.673 412.379 154.778 428.556C236.82 453.547 324.531 463.731 409.889 468.334C483.738 472.316 561.925 474.208 632.667 449.222C663.479 438.34 700.98 422.628 722.333 396.556C744.861 369.05 753.921 334.027 756.111 299.222C757.794 272.469 757.932 240.308 745.667 215.778C727.014 178.473 680.888 151.944 647.445 129.778C575.891 82.3527 499.871 74.7819 415.667 77.8891C360.339 79.9307 305.861 86.551 253.556 105.556C194.978 126.84 132.571 156.858 92.2223 206C71.6378 231.071 52.1415 264.745 60.1112 298.556C71.3255 346.132 115.15 380.38 159.222 395.889C223.385 418.469 300.589 419.036 367.556 412.889C430.291 407.131 498.526 390.192 552.445 356.111C598.868 326.768 638.572 290.561 643 233C644.732 210.482 646.07 185.93 640.667 163.778C634.432 138.214 610.67 119.499 591.667 103.334C561.239 77.45 529.535 52.7168 491.667 38.778C432.617 17.0426 370.001 9.62421 307.444 9.0002C231.564 8.24329 130.389 -2.62471 82.3334 68.6669C66.1668 92.6503 56.539 118.556 52.7778 147.222C49.8037 169.89 45.7695 203.295 60.7778 222.778C74.1751 240.169 94.1603 254.298 111.333 267.445C135.04 285.593 159.557 302.821 185.889 317C218.133 334.363 249.38 341.788 285 347" stroke="#F0BBCD" stroke-linecap="round"></path></svg> 