<?xml version="1.0" encoding="UTF-8"?> <svg xmlns="http://www.w3.org/2000/svg" width="51" height="33" viewBox="0 0 51 33" fill="none"><path d="M6.99991 13.5012C20.5064 9.47758 34.4599 4.03378 48.3888 1.50124C49.1371 1.36518 50.4672 0.622474 49.4444 2.22347C46.5028 6.82764 39.9001 9.38486 35.3332 11.9457C29.1461 15.4151 22.8145 18.6353 16.5555 21.9735C11.9185 24.4465 7.22043 26.8481 2.61102 29.3624C-1.67256 31.6989 11.8436 26.1927 16.3888 24.4179C23.1489 21.7783 30.6516 20.9633 37.3055 18.2235C38.6033 17.6891 43.0914 15.4577 39.4999 17.6679C32.9584 21.6935 26.5874 25.9484 19.7777 29.5012C19.4102 29.693 15.8735 31.4834 16.8888 31.5012C21.1995 31.5769 25.2124 30.5666 29.3332 29.4457C31.1346 28.9557 33.5937 28.0012 35.4999 28.0012" stroke="#ED1B38" stroke-width="2" stroke-linecap="round"></path></svg> 